<?xml version="1.0" encoding="UTF-8" standalone="no"?>
<!-- Created with Inkscape (http://www.inkscape.org/) -->

<svg
   xmlns:dc="http://purl.org/dc/elements/1.1/"
   xmlns:cc="http://creativecommons.org/ns#"
   xmlns:rdf="http://www.w3.org/1999/02/22-rdf-syntax-ns#"
   xmlns:svg="http://www.w3.org/2000/svg"
   xmlns="http://www.w3.org/2000/svg"
   xmlns:sodipodi="http://sodipodi.sourceforge.net/DTD/sodipodi-0.dtd"
   xmlns:inkscape="http://www.inkscape.org/namespaces/inkscape"
   width="210mm"
   height="297mm"
   viewBox="0 0 210 297"
   version="1.1"
   id="svg8"
   inkscape:version="0.92.1 r15371"
   sodipodi:docname="icons.svg">
  <defs
     id="defs2" />
  <sodipodi:namedview
     id="base"
     pagecolor="#ffffff"
     bordercolor="#666666"
     borderopacity="1.0"
     inkscape:pageopacity="0.0"
     inkscape:pageshadow="2"
     inkscape:zoom="2.8"
     inkscape:cx="419.09881"
     inkscape:cy="824.24807"
     inkscape:document-units="mm"
     inkscape:current-layer="layer1"
     showgrid="false"
     inkscape:window-width="1218"
     inkscape:window-height="775"
     inkscape:window-x="572"
     inkscape:window-y="100"
     inkscape:window-maximized="0" />
  <metadata
     id="metadata5">
    <rdf:RDF>
      <cc:Work
         rdf:about="">
        <dc:format>image/svg+xml</dc:format>
        <dc:type
           rdf:resource="http://purl.org/dc/dcmitype/StillImage" />
        <dc:title></dc:title>
      </cc:Work>
    </rdf:RDF>
  </metadata>
  <g
     inkscape:label="Calque 1"
     inkscape:groupmode="layer"
     id="layer1">
    <g
       aria-label=" "
       style="font-style:normal;font-variant:normal;font-weight:normal;font-stretch:normal;font-size:7.05555534px;line-height:1.25;font-family:FontAwesome;-inkscape-font-specification:FontAwesome;letter-spacing:0px;word-spacing:0px;fill:#000000;fill-opacity:1;stroke:none;stroke-width:0.26458332"
       id="open-o">
      <path
         d="m 59.830476,58.386777 -1.228422,-1.228423 c -0.145679,-0.145678 -0.437035,-0.267733 -0.64571,-0.267733 h -3.527777 c -0.208675,0 -0.377976,0.169302 -0.377976,0.377976 V 63.5682 c 0,0.208675 0.169301,0.377977 0.377976,0.377977 h 5.291666 c 0.208675,0 0.377976,-0.169302 0.377976,-0.377977 v -4.535714 c 0,-0.208674 -0.122054,-0.500031 -0.267733,-0.645709 z m -1.74814,-0.96069 c 0.06693,0.02362 0.133867,0.05906 0.161428,0.08662 l 1.23236,1.23236 c 0.02756,0.02756 0.063,0.09449 0.08662,0.161427 h -1.480407 z m 1.511905,6.016121 h -5.039682 v -6.047619 h 3.023809 v 1.637897 c 0,0.208675 0.169302,0.377976 0.377976,0.377976 h 1.637897 z"
         style="stroke-width:0.26458332"
         id="path49" />
    </g>
    <g
       aria-label=""
       style="font-style:normal;font-variant:normal;font-weight:normal;font-stretch:normal;font-size:7.05555534px;line-height:1.25;font-family:FontAwesome;-inkscape-font-specification:FontAwesome;letter-spacing:0px;word-spacing:0px;fill:#000000;fill-opacity:1;stroke:none;stroke-width:0.26458332"
       id="plug">
      <path
         d="m 71.543803,59.619143 c -0.196862,-0.196863 -0.51578,-0.196863 -0.712642,0 l -1.578838,1.5749 -0.921317,-0.921317 1.574901,-1.578838 c 0.196862,-0.192925 0.196862,-0.51578 0,-0.712642 -0.196863,-0.192926 -0.51578,-0.192926 -0.712643,0 l -1.574901,1.578838 -0.590587,-0.590588 -0.629961,0.62996 c -0.862258,0.862258 -0.984313,2.177301 -0.338603,3.153739 l -1.425286,1.425285 v 0.712643 h 0.712643 l 1.425285,-1.425285 c 0.976439,0.645709 2.291481,0.523654 3.153739,-0.338604 l 0.62996,-0.62996 -0.590588,-0.590588 1.578838,-1.574901 c 0.192926,-0.196862 0.192926,-0.51578 0,-0.712642 z"
         style="stroke-width:0.26458332"
         id="path52" />
    </g>
    <g
       aria-label=""
       style="font-style:normal;font-variant:normal;font-weight:normal;font-stretch:normal;font-size:7.05555534px;line-height:1.25;font-family:FontAwesome;-inkscape-font-specification:FontAwesome;letter-spacing:0px;word-spacing:0px;fill:#000000;fill-opacity:1;stroke:none;stroke-width:0.26458332"
       id="cog">
      <path
         d="m 79.249008,61.457835 c 0,0.555153 -0.452784,1.007937 -1.007936,1.007937 -0.555153,0 -1.007937,-0.452784 -1.007937,-1.007937 0,-0.555152 0.452784,-1.007936 1.007937,-1.007936 0.555152,0 1.007936,0.452784 1.007936,1.007936 z m 2.015873,-0.42916 c 0,-0.06693 -0.04725,-0.12993 -0.11418,-0.141741 l -0.720517,-0.110243 c -0.03937,-0.12993 -0.09449,-0.259859 -0.161428,-0.385851 0.133867,-0.185051 0.279545,-0.35829 0.413412,-0.539404 0.01969,-0.02756 0.0315,-0.05512 0.0315,-0.09056 0,-0.0315 -0.0079,-0.063 -0.02756,-0.08662 -0.165364,-0.232298 -0.440972,-0.476407 -0.649646,-0.669333 -0.02756,-0.02362 -0.063,-0.03937 -0.09843,-0.03937 -0.03544,0 -0.07087,0.01181 -0.09449,0.03543 l -0.55909,0.421286 c -0.11418,-0.05906 -0.232297,-0.106306 -0.354352,-0.145678 l -0.110243,-0.724455 c -0.0079,-0.06693 -0.07087,-0.118117 -0.141741,-0.118117 h -0.87407 c -0.07087,0 -0.125992,0.04725 -0.141741,0.110243 -0.063,0.236235 -0.08662,0.492156 -0.114181,0.732329 -0.122054,0.03937 -0.244109,0.09056 -0.35829,0.149615 l -0.54334,-0.421286 c -0.0315,-0.02362 -0.06693,-0.03937 -0.102369,-0.03937 -0.133866,0 -0.665395,0.574839 -0.759889,0.704768 -0.01969,0.02756 -0.03544,0.05512 -0.03544,0.09056 0,0.03543 0.01575,0.06693 0.03937,0.09449 0.145678,0.177176 0.287419,0.354352 0.421286,0.54334 -0.063,0.118118 -0.114181,0.236236 -0.153553,0.362228 l -0.732329,0.110243 c -0.05906,0.01181 -0.106306,0.08268 -0.106306,0.141741 v 0.87407 c 0,0.06693 0.04725,0.129929 0.114181,0.141741 l 0.720517,0.106306 c 0.03937,0.133866 0.09449,0.263795 0.161427,0.389787 -0.133867,0.185051 -0.279545,0.35829 -0.413411,0.539404 -0.01969,0.02756 -0.0315,0.05512 -0.0315,0.09056 0,0.0315 0.0079,0.063 0.02756,0.09056 0.165365,0.22836 0.440973,0.47247 0.649647,0.661458 0.02756,0.02756 0.063,0.04331 0.09843,0.04331 0.03543,0 0.07087,-0.01181 0.09843,-0.03544 L 77.1977,63.493394 c 0.11418,0.05906 0.232298,0.106306 0.354353,0.145679 l 0.110243,0.724454 c 0.0079,0.06693 0.07087,0.118118 0.141741,0.118118 h 0.87407 c 0.07087,0 0.125992,-0.04725 0.141741,-0.110243 0.063,-0.236236 0.08662,-0.492157 0.11418,-0.732329 0.122055,-0.03937 0.24411,-0.09056 0.35829,-0.149616 l 0.543341,0.425223 c 0.0315,0.01969 0.06693,0.03544 0.102368,0.03544 0.133867,0 0.665396,-0.578776 0.75989,-0.704768 0.02362,-0.02756 0.03543,-0.05512 0.03543,-0.09056 0,-0.03544 -0.01575,-0.07087 -0.03937,-0.09843 -0.145679,-0.177176 -0.28742,-0.350415 -0.421286,-0.54334 0.063,-0.114181 0.110243,-0.232298 0.153552,-0.35829 l 0.728392,-0.110243 c 0.063,-0.01181 0.110243,-0.08268 0.110243,-0.141741 z"
         style="stroke-width:0.26458332"
         id="path55" />
    </g>
    <g
       aria-label=""
       style="font-style:normal;font-variant:normal;font-weight:normal;font-stretch:normal;font-size:7.05555534px;line-height:1.25;font-family:FontAwesome;-inkscape-font-specification:FontAwesome;letter-spacing:0px;word-spacing:0px;fill:#000000;fill-opacity:1;stroke:none;stroke-width:0.26458332"
       id="help">
      <path
         d="m 88.950393,63.536704 c 0,0.07087 -0.05512,0.125992 -0.125992,0.125992 h -0.755953 c -0.07087,0 -0.125992,-0.05512 -0.125992,-0.125992 v -0.755953 c 0,-0.07087 0.05512,-0.125992 0.125992,-0.125992 h 0.755953 c 0.07087,0 0.125992,0.05512 0.125992,0.125992 z m 1.007936,-2.645833 c 0,0.598462 -0.409474,0.826822 -0.708705,0.996124 -0.185051,0.106306 -0.299231,0.299231 -0.299231,0.389788 0,0.07087 -0.05512,0.125992 -0.125992,0.125992 h -0.755953 c -0.07087,0 -0.125992,-0.05512 -0.125992,-0.125992 v -0.141741 c 0,-0.381913 0.381914,-0.708705 0.661459,-0.834697 0.240172,-0.110243 0.346478,-0.212612 0.346478,-0.417349 0,-0.173239 -0.232298,-0.334666 -0.484282,-0.334666 -0.141741,0 -0.271671,0.04725 -0.338604,0.09449 -0.07481,0.05512 -0.153553,0.125992 -0.338604,0.362227 -0.02362,0.0315 -0.063,0.04725 -0.09843,0.04725 -0.02756,0 -0.05512,-0.0079 -0.07481,-0.02362 l -0.519717,-0.393725 c -0.05118,-0.03937 -0.06693,-0.110243 -0.0315,-0.165364 0.338604,-0.563027 0.818948,-0.838635 1.460721,-0.838635 0.677207,0 1.433159,0.539403 1.433159,1.259921 z m 1.511905,0.755952 c 0,-1.669395 -1.354415,-3.02381 -3.02381,-3.02381 -1.669394,0 -3.023809,1.354415 -3.023809,3.02381 0,1.669395 1.354415,3.023809 3.023809,3.023809 1.669395,0 3.02381,-1.354414 3.02381,-3.023809 z"
         style="stroke-width:0.26458332"
         id="path58" />
    </g>
    <g
       aria-label=""
       style="font-style:normal;font-variant:normal;font-weight:normal;font-stretch:normal;font-size:7.05555534px;line-height:1.25;font-family:FontAwesome;-inkscape-font-specification:FontAwesome;letter-spacing:0px;word-spacing:0px;fill:#000000;fill-opacity:1;stroke:none;stroke-width:0.26458332"
       id="bars">
      <path
         d="m 99.691219,63.410712 c 0,-0.137804 -0.11418,-0.251984 -0.251984,-0.251984 h -5.54365 c -0.137804,0 -0.251985,0.11418 -0.251985,0.251984 v 0.503968 c 0,0.137804 0.114181,0.251984 0.251985,0.251984 h 5.54365 c 0.137804,0 0.251984,-0.11418 0.251984,-0.251984 z m 0,-2.015873 c 0,-0.137804 -0.11418,-0.251984 -0.251984,-0.251984 h -5.54365 c -0.137804,0 -0.251985,0.11418 -0.251985,0.251984 v 0.503968 c 0,0.137804 0.114181,0.251984 0.251985,0.251984 h 5.54365 c 0.137804,0 0.251984,-0.11418 0.251984,-0.251984 z m 0,-2.015873 c 0,-0.137804 -0.11418,-0.251984 -0.251984,-0.251984 h -5.54365 c -0.137804,0 -0.251985,0.11418 -0.251985,0.251984 v 0.503968 c 0,0.137804 0.114181,0.251984 0.251985,0.251984 h 5.54365 c 0.137804,0 0.251984,-0.11418 0.251984,-0.251984 z"
         style="stroke-width:0.26458332"
         id="path46" />
    </g>
    <g
       aria-label=""
       style="font-style:normal;font-variant:normal;font-weight:normal;font-stretch:normal;font-size:7.05555534px;line-height:1.25;font-family:FontAwesome;-inkscape-font-specification:FontAwesome;letter-spacing:0px;word-spacing:0px;fill:#000000;fill-opacity:1;stroke:none;stroke-width:0.26458332"
       id="logoff">
      <path
         d="m 108.57366,62.308284 c 0,-0.956752 -0.44097,-1.838697 -1.20874,-2.413536 -0.22048,-0.169301 -0.5394,-0.125992 -0.70477,0.09843 -0.1693,0.220486 -0.12205,0.539403 0.0984,0.704768 0.51185,0.38585 0.80714,0.972501 0.80714,1.610336 0,1.110305 -0.90557,2.015873 -2.01587,2.015873 -1.11031,0 -2.01587,-0.905568 -2.01587,-2.015873 0,-0.637835 0.29529,-1.224486 0.80713,-1.610336 0.22049,-0.165365 0.26774,-0.484282 0.0984,-0.704768 -0.16536,-0.224424 -0.48034,-0.267733 -0.70476,-0.09843 -0.76777,0.574839 -1.20874,1.456784 -1.20874,2.413536 0,1.665457 1.35835,3.023809 3.02381,3.023809 1.66546,0 3.02381,-1.358352 3.02381,-3.023809 z m -2.51984,-3.02381 c 0,-0.275607 -0.22836,-0.503968 -0.50397,-0.503968 -0.27561,0 -0.50397,0.228361 -0.50397,0.503968 v 2.519842 c 0,0.275607 0.22836,0.503968 0.50397,0.503968 0.27561,0 0.50397,-0.228361 0.50397,-0.503968 z"
         style="stroke-width:0.26458332"
         id="path61" />
    </g>
    <g
       aria-label=""
       style="font-style:normal;font-variant:normal;font-weight:normal;font-stretch:normal;font-size:7.05555534px;line-height:1.25;font-family:FontAwesome;-inkscape-font-specification:FontAwesome;letter-spacing:0px;word-spacing:0px;fill:#000000;fill-opacity:1;stroke:none;stroke-width:0.26458332"
       id="chart">
      <path
         d="m 134.02406,64.922615 h -7.55953 v -5.543651 h -0.50397 v 6.047619 h 8.0635 z m -1.51191,-4.031746 -1.5119,1.259921 -2.26786,-2.267857 -1.76389,2.267857 v 2.267857 h 6.55159 z"
         style="stroke-width:0.26458332"
         id="path64" />
    </g>
    <g
       aria-label=""
       style="font-style:normal;font-variant:normal;font-weight:normal;font-stretch:normal;font-size:7.05555534px;line-height:1.25;font-family:FontAwesome;-inkscape-font-specification:FontAwesome;letter-spacing:0px;word-spacing:0px;fill:#000000;fill-opacity:1;stroke:none;stroke-width:0.26458332"
       id="db">
      <path
         d="m 121.14136,61.898806 c -1.18511,0 -2.37416,-0.212612 -3.02381,-0.669333 v 0.669333 c 0,0.555152 1.35442,1.007936 3.02381,1.007936 1.6694,0 3.02381,-0.452784 3.02381,-1.007936 v -0.669333 c -0.64964,0.456721 -1.83869,0.669333 -3.02381,0.669333 z m 0,3.023809 c -1.18511,0 -2.37416,-0.212612 -3.02381,-0.669333 v 0.669333 c 0,0.555153 1.35442,1.007937 3.02381,1.007937 1.6694,0 3.02381,-0.452784 3.02381,-1.007937 v -0.669333 c -0.64964,0.456721 -1.83869,0.669333 -3.02381,0.669333 z m 0,-1.511905 c -1.18511,0 -2.37416,-0.212611 -3.02381,-0.669332 v 0.669332 c 0,0.555153 1.35442,1.007937 3.02381,1.007937 1.6694,0 3.02381,-0.452784 3.02381,-1.007937 v -0.669332 c -0.64964,0.456721 -1.83869,0.669332 -3.02381,0.669332 z m 0,-4.535714 c -1.66939,0 -3.02381,0.452784 -3.02381,1.007937 v 0.503968 c 0,0.555152 1.35442,1.007936 3.02381,1.007936 1.6694,0 3.02381,-0.452784 3.02381,-1.007936 v -0.503968 c 0,-0.555153 -1.35441,-1.007937 -3.02381,-1.007937 z"
         style="stroke-width:0.26458332"
         id="path67" />
    </g>
    <g
       aria-label=""
       style="font-style:normal;font-variant:normal;font-weight:normal;font-stretch:normal;font-size:7.05555534px;line-height:1.25;font-family:FontAwesome;-inkscape-font-specification:FontAwesome;letter-spacing:0px;word-spacing:0px;fill:#000000;fill-opacity:1;stroke:none;stroke-width:0.26458332"
       id="file">
      <path
         d="m 114.68427,60.796371 h 1.85839 c -0.0354,-0.05512 -0.0709,-0.102368 -0.11025,-0.141741 l -1.6064,-1.606398 c -0.0394,-0.03937 -0.0866,-0.07481 -0.14174,-0.110243 z m -0.50397,0.125993 v -2.141865 h -3.1498 c -0.20867,0 -0.37797,0.169301 -0.37797,0.377976 v 6.299603 c 0,0.208674 0.1693,0.377976 0.37797,0.377976 h 5.29167 c 0.20867,0 0.37798,-0.169302 0.37798,-0.377976 V 61.30034 h -2.14187 c -0.20867,0 -0.37798,-0.169302 -0.37798,-0.377976 z"
         style="stroke-width:0.26458332"
         id="path70" />
    </g>
  </g>
</svg>
